<svg viewBox="-5.163 129 516.327 387" xmlns="http://www.w3.org/2000/svg" overflow="visible">
    <g id="Master/Stickers/UI Design" stroke="none" stroke-width="1" fill="none" fill-rule="evenodd">
        <g id="Group-123" transform="translate(0.000000, 132.000000)">
            <path d="M298.789361,383 L166.210639,383 C157.25721,383 150,375.761738 150,366.83263 L150,33.1683145 C150,24.2382616 157.25721,17 166.210639,17 L189.739067,17 C195.526283,17 200.218338,21.6798047 200.218338,27.452854 C200.218338,33.2259034 204.910393,37.904764 210.698555,37.904764 L254.301445,37.904764 C260.08866,37.904764 264.780716,33.2259034 264.780716,27.452854 C264.780716,21.6798047 269.472771,17 275.260933,17 L298.789361,17 C307.741844,17 315,24.2382616 315,33.1683145 L315,366.83263 C315,375.761738 307.741844,383 298.789361,383" id="Fill-1" fill="#80f4ec"/>
            <path d="M166.542758,16.8302313 C157.878176,16.8302313 150.826902,23.899948 150.826902,32.5914021 L150.826902,366.409542 C150.826902,375.099107 157.878176,382.169769 166.542758,382.169769 L298.4563,382.169769 C307.121824,382.169769 314.172156,375.099107 314.172156,366.409542 L314.172156,32.5914021 C314.172156,23.899948 307.121824,16.8302313 298.4563,16.8302313 L275.04592,16.8302313 C269.525075,16.8302313 265.032678,21.3355818 265.032678,26.872346 C265.032678,32.8672013 260.16921,37.7446919 254.191591,37.7446919 L210.807467,37.7446919 C204.829848,37.7446919 199.966381,32.8672013 199.966381,26.872346 C199.966381,21.3355818 195.474925,16.8302313 189.953138,16.8302313 L166.542758,16.8302313 Z M298.4563,383 L166.542758,383 C157.420461,383 150,375.558143 150,366.409542 L150,32.5914021 C150,23.4428013 157.420461,16 166.542758,16 L189.953138,16 C195.930758,16 200.794225,20.8774906 200.794225,26.872346 C200.794225,32.4100546 205.286622,36.9144606 210.807467,36.9144606 L254.191591,36.9144606 C259.713378,36.9144606 264.204833,32.4100546 264.204833,26.872346 C264.204833,20.8774906 269.068301,16 275.04592,16 L298.4563,16 C307.578598,16 315,23.4428013 315,32.5914021 L315,366.409542 C315,375.558143 307.578598,383 298.4563,383 L298.4563,383 Z" id="Fill-3" fill="#003b38"/>
            <path d="M424.730318,164 L365.268731,164 C361.254627,164 358,160.775623 358,156.799991 L358,8.20095066 C358,4.22437652 361.254627,1 365.268731,1 L375.822507,1 C378.417464,1 380.521946,3.0843123 380.521946,5.65628213 C380.521946,8.22636911 382.626427,10.3106814 385.222335,10.3106814 L404.777665,10.3106814 C407.372622,10.3106814 409.477104,8.22636911 409.477104,5.65628213 C409.477104,3.0843123 411.581585,1 414.177493,1 L424.730318,1 C428.745373,1 432,4.22437652 432,8.20095066 L432,156.799991 C432,160.775623 428.745373,164 424.730318,164" id="Fill-5" fill="#80f4ec"/>
            <path d="M365.645788,0.941760173 C361.947242,0.941760173 358.938479,3.96198505 358.938479,7.67346189 L358.938479,156.325596 C358.938479,160.038015 361.947242,163.05824 365.645788,163.05824 L424.353274,163.05824 C428.051819,163.05824 431.061521,160.038015 431.061521,156.325596 L431.061521,7.67346189 C431.061521,3.96198505 428.051819,0.941760173 424.353274,0.941760173 L413.934281,0.941760173 C411.634069,0.941760173 409.762742,2.81962996 409.762742,5.12788414 C409.762742,7.95504818 407.470038,10.2557683 404.652725,10.2557683 L385.345398,10.2557683 C382.528085,10.2557683 380.236319,7.95504818 380.236319,5.12788414 C380.236319,2.81962996 378.364992,0.941760173 376.065719,0.941760173 L365.645788,0.941760173 Z M424.353274,164 L365.645788,164 C361.43014,164 358,160.556925 358,156.325596 L358,7.67346189 C358,3.44213343 361.43014,0 365.645788,0 L376.065719,0 C378.882094,0 381.174798,2.29977834 381.174798,5.12788414 C381.174798,7.43613832 383.046125,9.31400811 385.345398,9.31400811 L404.652725,9.31400811 C406.952937,9.31400811 408.824263,7.43613832 408.824263,5.12788414 C408.824263,2.29977834 411.116029,0 413.934281,0 L424.353274,0 C428.56986,0 432,3.44213343 432,7.67346189 L432,156.325596 C432,160.556925 428.56986,164 424.353274,164 L424.353274,164 Z" id="Fill-7" fill="#003b38"/>
            <path d="M89.3724216,289 L10.6275784,289 C5.31101043,289 1,284.668279 1,279.32617 L1,79.6738295 C1,74.3307755 5.31101043,70 10.6275784,70 L24.6028527,70 C28.0399969,70 30.8271503,72.8005429 30.8271503,76.2541993 C30.8271503,79.7078557 33.6143037,82.5083986 37.0514479,82.5083986 L62.9485521,82.5083986 C66.386637,82.5083986 69.1728497,79.7078557 69.1728497,76.2541993 C69.1728497,72.8005429 71.9600031,70 75.398088,70 L89.3724216,70 C94.6899302,70 99,74.3307755 99,79.6738295 L99,279.32617 C99,284.668279 94.6899302,289 89.3724216,289" id="Fill-9" fill="#80f4ec"/>
            <path d="M10.1039617,70.945407 C5.05151023,70.945407 0.941216737,75.0739996 0.941216737,80.1489446 L0.941216737,279.851055 C0.941216737,284.926 5.05151023,289.054593 10.1039617,289.054593 L88.8960383,289.054593 C93.9484898,289.054593 98.0587833,284.926 98.0587833,279.851055 L98.0587833,80.1489446 C98.0587833,75.0739996 93.9484898,70.945407 88.8960383,70.945407 L74.9123813,70.945407 C71.7376572,70.945407 69.1549585,73.539604 69.1549585,76.7284619 C69.1549585,80.4391845 66.1505947,83.4569238 62.456319,83.4569238 L36.543681,83.4569238 C32.8494053,83.4569238 29.8450415,80.4391845 29.8450415,76.7284619 C29.8450415,73.539604 27.2614016,70.945407 24.0866775,70.945407 L10.1039617,70.945407 Z M88.8960383,290 L10.1039617,290 C4.53195859,290 0,285.447865 0,279.851055 L0,80.1489446 C0,74.5521349 4.53195859,70 10.1039617,70 L24.0866775,70 C27.7809532,70 30.7862582,73.0177393 30.7862582,76.7284619 C30.7862582,79.9173199 33.368957,82.5115168 36.543681,82.5115168 L62.456319,82.5115168 C65.631043,82.5115168 68.2137418,79.9173199 68.2137418,76.7284619 C68.2137418,73.0177393 71.2190468,70 74.9123813,70 L88.8960383,70 C94.4680414,70 99,74.5521349 99,80.1489446 L99,279.851055 C99,285.447865 94.4680414,290 88.8960383,290 L88.8960383,290 Z" id="Fill-11" fill="#003b38"/>
            <path d="M328.397556,184 L318,184 L318,183.423739 L328.397556,183.423739 C331.528575,183.423739 334.076667,180.855479 334.076667,177.699677 L334.076667,88.3003235 C334.076667,84.826779 336.881246,82 340.327512,82 L358,82 L358,82.5762606 L340.327512,82.5762606 C337.196493,82.5762606 334.648402,85.1445213 334.648402,88.3003235 L334.648402,177.699677 C334.648402,181.173221 331.843822,184 328.397556,184" id="Fill-13" fill="#0f827c"/>
            <path d="M147,269 L128.606139,269 C124.272131,269 120.747277,265.462395 120.747277,261.11271 L120.747277,186.88729 C120.747277,182.901576 117.516318,179.658929 113.544969,179.658929 L99,179.658929 L99,179 L113.544969,179 C117.878976,179 121.403831,182.537605 121.403831,186.88729 L121.403831,261.11271 C121.403831,265.098424 124.63479,268.341071 128.606139,268.341071 L147,268.341071 L147,269 Z" id="Fill-15" fill="#0f827c"/>
            <path d="M155,269 C155,271.208732 153.208732,273 151,273 C148.791268,273 147,271.208732 147,269 C147,266.790334 148.791268,265 151,265 C153.208732,265 155,266.790334 155,269" id="Fill-17" fill="#0f827c"/>
            <path d="M319,183 C319,185.208732 317.208732,187 315,187 C312.790334,187 311,185.208732 311,183 C311,180.790334 312.790334,179 315,179 C317.208732,179 319,180.790334 319,183" id="Fill-19" fill="#0f827c"/>
            <path d="M361,82.0004516 C361,83.6569321 359.657134,85 358.000903,85 C356.343769,85 355,83.6569321 355,82.0004516 C355,80.3430679 356.343769,79 358.000903,79 C359.657134,79 361,80.3430679 361,82.0004516" id="Fill-21" fill="#0f827c"/>
            <path d="M394,164.000452 C394,165.656932 392.657835,167 391.000452,167 C389.343971,167 388,165.656932 388,164.000452 C388,162.343068 389.343971,161 391.000452,161 C392.657835,161 394,162.343068 394,164.000452" id="Fill-23" fill="#0f827c"/>
            <path d="M102,179.499536 C102,181.432905 100.433113,183 98.5,183 C96.5678146,183 95,181.432905 95,179.499536 C95,177.566168 96.5678146,176 98.5,176 C100.433113,176 102,177.566168 102,179.499536" id="Fill-25" fill="#0f827c"/>
            <path d="M32,127.5 C32,134.403682 26.4038953,140 19.5004764,140 C12.5970576,140 7,134.403682 7,127.5 C7,120.596318 12.5970576,115 19.5004764,115 C26.4038953,115 32,120.596318 32,127.5" id="Fill-27" fill="#56cdc6"/>
            <path d="M87.9744164,123 L40.0255836,123 C38.9056876,123 38,122.104824 38,121 C38,119.895176 38.9056876,119 40.0255836,119 L87.9744164,119 C89.0933728,119 90,119.895176 90,121 C90,122.104824 89.0933728,123 87.9744164,123" id="Fill-29" fill="#56cdc6"/>
            <path d="M87.9744164,134 L40.0255836,134 C38.9056876,134 38,133.104104 38,131.999536 C38,130.894969 38.9056876,130 40.0255836,130 L87.9744164,130 C89.0933728,130 90,130.894969 90,131.999536 C90,133.104104 89.0933728,134 87.9744164,134" id="Fill-31" fill="#56cdc6"/>
            <path d="M32,167.5 C32,174.403682 26.4038953,180 19.5004764,180 C12.5970576,180 7,174.403682 7,167.5 C7,160.596318 12.5970576,155 19.5004764,155 C26.4038953,155 32,160.596318 32,167.5" id="Fill-33" fill="#56cdc6"/>
            <path d="M87.9744164,163 L40.0255836,163 C38.9056876,163 38,162.104824 38,161 C38,159.895176 38.9056876,159 40.0255836,159 L87.9744164,159 C89.0933728,159 90,159.895176 90,161 C90,162.104824 89.0933728,163 87.9744164,163" id="Fill-35" fill="#56cdc6"/>
            <path d="M87.9744164,174 L40.0255836,174 C38.9056876,174 38,173.104104 38,171.999536 C38,170.894969 38.9056876,170 40.0255836,170 L87.9744164,170 C89.0933728,170 90,170.894969 90,171.999536 C90,173.104104 89.0933728,174 87.9744164,174" id="Fill-37" fill="#56cdc6"/>
            <path d="M418.610031,145 L371.390916,145 C369.518433,145 368,143.489618 368,141.628007 L368,28.3729343 C368,26.5094399 369.518433,25 371.390916,25 L418.610031,25 C420.482513,25 422,26.5094399 422,28.3729343 L422,141.628007 C422,143.489618 420.482513,145 418.610031,145" id="Fill-39" fill="#56cdc6"/>
            <path d="M32,207.5 C32,214.403682 26.4038953,220 19.5004764,220 C12.5970576,220 7,214.403682 7,207.5 C7,200.596318 12.5970576,195 19.5004764,195 C26.4038953,195 32,200.596318 32,207.5" id="Fill-41" fill="#56cdc6"/>
            <path d="M87.9744164,204 L40.0255836,204 C38.9056876,204 38,203.104824 38,202 C38,200.895176 38.9056876,200 40.0255836,200 L87.9744164,200 C89.0933728,200 90,200.895176 90,202 C90,203.104824 89.0933728,204 87.9744164,204" id="Fill-43" fill="#56cdc6"/>
            <path d="M87.9744164,214 L40.0255836,214 C38.9056876,214 38,213.104104 38,211.999536 C38,210.894969 38.9056876,210 40.0255836,210 L87.9744164,210 C89.0933728,210 90,210.894969 90,211.999536 C90,213.104104 89.0933728,214 87.9744164,214" id="Fill-45" fill="#56cdc6"/>
            <path d="M32,247.5 C32,254.403682 26.4038953,260 19.5004764,260 C12.5970576,260 7,254.403682 7,247.5 C7,240.596318 12.5970576,235 19.5004764,235 C26.4038953,235 32,240.596318 32,247.5" id="Fill-47" fill="#56cdc6"/>
            <path d="M87.9744164,244 L40.0255836,244 C38.9056876,244 38,243.104824 38,242 C38,240.895176 38.9056876,240 40.0255836,240 L87.9744164,240 C89.0933728,240 90,240.895176 90,242 C90,243.104824 89.0933728,244 87.9744164,244" id="Fill-49" fill="#56cdc6"/>
            <path d="M87.9744164,255 L40.0255836,255 C38.9056876,255 38,254.104104 38,252.999536 C38,251.894969 38.9056876,251 40.0255836,251 L87.9744164,251 C89.0933728,251 90,251.894969 90,252.999536 C90,254.104104 89.0933728,255 87.9744164,255" id="Fill-51" fill="#56cdc6"/>
            <path d="M244.239122,209 L139.760878,209 C137.131186,209 135,206.8729 135,204.250358 L135,84.7496415 C135,82.1261558 137.131186,80 139.760878,80 L244.239122,80 C246.868814,80 249,82.1261558 249,84.7496415 L249,204.250358 C249,206.8729 246.868814,209 244.239122,209" id="Fill-53" fill="#0f827c"/>
            <path d="M301.491771,192 L224.508229,192 C222.570395,192 221,190.43418 221,188.501993 L221,100.498954 C221,98.5667663 222.570395,97 224.508229,97 L301.491771,97 C303.429605,97 305,98.5667663 305,100.498954 L305,188.501993 C305,190.43418 303.429605,192 301.491771,192" id="Fill-55" fill="#003b38"/>
            <path d="M285.684768,244 L180.317125,244 C179.037405,244 178,242.880262 178,241.5 C178,240.118717 179.037405,239 180.317125,239 L285.684768,239 C286.964488,239 288,240.118717 288,241.5 C288,242.880262 286.964488,244 285.684768,244" id="Fill-57" fill="#56cdc6"/>
            <path d="M285.684768,260 L180.317125,260 C179.037405,260 178,258.880262 178,257.501022 C178,256.119738 179.037405,255 180.317125,255 L285.684768,255 C286.964488,255 288,256.119738 288,257.501022 C288,258.880262 286.964488,260 285.684768,260" id="Fill-59" fill="#56cdc6"/>
            <path d="M285.684768,275 L180.317125,275 C179.037405,275 178,273.88049 178,272.500511 C178,271.11951 179.037405,270 180.317125,270 L285.684768,270 C286.964488,270 288,271.11951 288,272.500511 C288,273.88049 286.964488,275 285.684768,275" id="Fill-61" fill="#56cdc6"/>
            <path d="M285.684768,291 L180.317125,291 C179.037405,291 178,289.880262 178,288.5 C178,287.119738 179.037405,286 180.317125,286 L285.684768,286 C286.964488,286 288,287.119738 288,288.5 C288,289.880262 286.964488,291 285.684768,291" id="Fill-63" fill="#56cdc6"/>
            <path d="M285.684768,306 L180.317125,306 C179.037405,306 178,304.881283 178,303.501022 C178,302.119738 179.037405,301 180.317125,301 L285.684768,301 C286.964488,301 288,302.119738 288,303.501022 C288,304.881283 286.964488,306 285.684768,306" id="Fill-65" fill="#56cdc6"/>
        </g>
    </g>
</svg>
